<?xml version="1.0" encoding="UTF-8"?>
<svg width="22px" height="22px" viewBox="0 0 22 22" version="1.1" xmlns="http://www.w3.org/2000/svg" xmlns:xlink="http://www.w3.org/1999/xlink">
    <!-- Generator: sketchtool 51.2 (57519) - http://www.bohemiancoding.com/sketch -->
    <title>9A062E84-068B-4CB7-B493-20E59462EB75</title>
    <desc>Created with sketchtool.</desc>
    <defs></defs>
    <g id="Page-1" stroke="none" stroke-width="1" fill="none" fill-rule="evenodd">
        <g id="INVENTORY_configuration" transform="translate(-967.000000, -938.000000)" fill="#303584" fill-rule="nonzero">
            <g id="Group-10" transform="translate(967.000000, 936.000000)">
                <g id="edit" transform="translate(0.000000, 2.000000)">
                    <path d="M9.99428571,1.82285714 L8.61142857,4.14857143 L13.3257143,6.85142857 L14.7085714,4.52571429 L9.99428571,1.82285714 Z M2.2,15.3371429 L6.91428571,18.04 L12.6971429,8.04571429 L7.98285714,5.34285714 L2.2,15.3371429 Z M1.50857143,16.5314286 L2.51428571,20.24 L6.22285714,19.2342857 L1.50857143,16.5314286 Z M13.8285714,8.73714286 L7.04,20.4914286 L1.50857143,22 L0,16.4685714 L6.78857143,4.71428571 L7.48,3.52 L9.49142857,0 L16.5314286,4.08571429 L14.2685714,7.98285714 L13.8285714,8.73714286 Z M9.61714286,22 L9.61714286,20.6171429 L22,20.6171429 L22,22 L9.61714286,22 Z" id="Shape"></path>
                </g>
            </g>
        </g>
    </g>
</svg>