<?xml version="1.0" encoding="UTF-8"?>
<svg width="22px" height="22px" viewBox="0 0 22 22" version="1.1" xmlns="http://www.w3.org/2000/svg" xmlns:xlink="http://www.w3.org/1999/xlink">
    <!-- Generator: Sketch 59.1 (86144) - https://sketch.com -->
    <title>search</title>
    <desc>Created with Sketch.</desc>
    <g id="Page-1" stroke="none" stroke-width="1" fill="none" fill-rule="evenodd">
        <g id="INVENTORY-Admin" transform="translate(-1194.000000, -397.000000)" fill="#303584" fill-rule="nonzero">
            <g id="Group-10" transform="translate(1140.000000, 377.500000)">
                <g id="search" transform="translate(54.147013, 19.500000)">
                    <path d="M21.6953211,8.89847154 C21.6953211,10.4437865 21.2927712,11.9662593 20.5312037,13.3015266 C20.2993072,13.708049 19.7818849,13.8495705 19.3751969,13.617674 C18.9686745,13.3857774 18.8269875,12.8681896 19.0590496,12.4616672 C19.674792,11.3819661 20.0003741,10.1498191 20.0003741,8.89847154 C20.0003741,4.92643618 16.7688849,1.69494696 12.7968495,1.69494696 C8.82481419,1.69494696 5.59332497,4.92643618 5.59332497,8.89847154 C5.59332497,12.8705069 8.82481419,16.1019961 12.7968495,16.1019961 C14.0329691,16.1019961 15.2520398,15.7838625 16.3221406,15.1820239 C16.7301527,14.9526102 17.2469129,15.0974421 17.4763267,15.5052887 C17.7057404,15.9133009 17.561074,16.4300611 17.1530619,16.6593093 C15.8298777,17.4036624 14.3234605,17.7969431 12.7968495,17.7969431 C10.6579722,17.7969431 8.69305854,17.0381895 7.1566818,15.7759175 L1.44467745,21.4491896 C1.27948631,21.6132221 1.06347989,21.6953211 0.84747348,21.6953211 C0.629646312,21.6953211 0.411819144,21.6118979 0.246131469,21.4450516 C-0.0835886822,21.1130141 -0.0817679702,20.5763913 0.250269512,20.2465056 L5.95465986,14.581013 C4.67136653,13.0385119 3.89837801,11.0572116 3.89837801,8.89847154 C3.89837801,3.99189802 7.89027603,-2.84217094e-14 12.7968495,-2.84217094e-14 C17.7034231,-2.84217094e-14 21.6953211,3.99189802 21.6953211,8.89847154 Z M18.4903154,8.53829531 C18.6957285,8.83060747 18.6957285,9.22041214 18.490481,9.5127243 C18.4606869,9.55509797 18.3583943,9.69992984 18.2948337,9.77987705 C18.0111288,10.1365773 17.3467228,10.9724642 16.4222815,11.7101966 C15.2369773,12.6561557 14.0172445,13.1358389 12.7968495,13.1358389 C11.5766202,13.1358389 10.3568873,12.6561557 9.17158309,11.7101966 C8.2469763,10.9724642 7.58257031,10.1367428 7.29886535,9.77987705 C7.23530483,9.69992984 7.13317767,9.55526349 7.10321813,9.5127243 C6.89797064,9.22041214 6.89797064,8.83060747 7.10338368,8.53829531 C7.13317767,8.49592164 7.23530483,8.35125529 7.29886535,8.27147358 C7.58257031,7.91444228 8.24714181,7.07872089 9.17158309,6.34098857 C10.3567218,5.39502939 11.5766202,4.91534618 12.7968495,4.91534618 C14.0172445,4.91534618 15.2369773,5.39502939 16.4222815,6.34098857 C17.3467228,7.07872089 18.0111288,7.91444228 18.2948337,8.27147358 C18.3583943,8.3514208 18.4605214,8.49592164 18.4903154,8.53829531 Z M16.7225387,9.02559256 C15.3750228,7.42251041 14.0556456,6.61029314 12.7968495,6.61029314 C11.538219,6.61029314 10.2188418,7.42251041 8.8713259,9.02559256 C10.2188418,10.6286747 11.538219,11.440892 12.7968495,11.440892 C14.0556456,11.440892 15.3748573,10.6288403 16.7225387,9.02559256 Z M12.8392232,7.41539295 C11.9498726,7.41539295 11.2290236,8.13624198 11.2290236,9.02559256 C11.2290236,9.91494314 11.9498726,10.6357922 12.8392232,10.6357922 C13.7285738,10.6357922 14.4494228,9.91494314 14.4494228,9.02559256 C14.4494228,8.13624198 13.7285738,7.41539295 12.8392232,7.41539295 Z" id="Shape"></path>
                </g>
            </g>
        </g>
    </g>
</svg>